<svg width="24" height="24" viewBox="0 0 24 24" fill="none" xmlns="http://www.w3.org/2000/svg">
<g id="FirstAidKit">
<g id="Vector">
<path fill-rule="evenodd" clip-rule="evenodd" d="M2.25 7.5C2.25 6.67157 2.92157 6 3.75 6H20.25C21.0784 6 21.75 6.67157 21.75 7.5V19.5C21.75 20.3284 21.0784 21 20.25 21H3.75C2.92157 21 2.25 20.3284 2.25 19.5V7.5ZM20.25 7.5H3.75V19.5H20.25V7.5Z" fill="black"/>
<path fill-rule="evenodd" clip-rule="evenodd" d="M8.15901 3.65901C8.58097 3.23705 9.15326 3 9.75 3H14.25C14.8467 3 15.419 3.23705 15.841 3.65901C16.2629 4.08097 16.5 4.65326 16.5 5.25V6.75C16.5 7.16421 16.1642 7.5 15.75 7.5C15.3358 7.5 15 7.16421 15 6.75V5.25C15 5.05109 14.921 4.86032 14.7803 4.71967C14.6397 4.57902 14.4489 4.5 14.25 4.5H9.75C9.55109 4.5 9.36032 4.57902 9.21967 4.71967C9.07902 4.86032 9 5.05109 9 5.25V6.75C9 7.16421 8.66421 7.5 8.25 7.5C7.83579 7.5 7.5 7.16421 7.5 6.75V5.25C7.5 4.65326 7.73705 4.08097 8.15901 3.65901Z" fill="black"/>
<path fill-rule="evenodd" clip-rule="evenodd" d="M12 10.125C12.4142 10.125 12.75 10.4608 12.75 10.875V16.125C12.75 16.5392 12.4142 16.875 12 16.875C11.5858 16.875 11.25 16.5392 11.25 16.125V10.875C11.25 10.4608 11.5858 10.125 12 10.125Z" fill="black"/>
<path fill-rule="evenodd" clip-rule="evenodd" d="M8.625 13.5C8.625 13.0858 8.96079 12.75 9.375 12.75H14.625C15.0392 12.75 15.375 13.0858 15.375 13.5C15.375 13.9142 15.0392 14.25 14.625 14.25H9.375C8.96079 14.25 8.625 13.9142 8.625 13.5Z" fill="black"/>
</g>
</g>
</svg>
