<svg width="24" height="24" viewBox="0 0 24 24" fill="none" xmlns="http://www.w3.org/2000/svg">
<g id="Flask">
<g id="Vector">
<path fill-rule="evenodd" clip-rule="evenodd" d="M9.74987 2.25C10.1641 2.25 10.4999 2.58579 10.4999 3V8.79875C10.4981 9.06201 10.4288 9.32042 10.2985 9.5492L10.2899 9.564L4.32827 19.5H19.6715L13.7099 9.564L13.7012 9.5492C13.571 9.32042 13.5016 9.06202 13.4999 8.79875L13.4999 8.79375L13.4999 3C13.4999 2.58579 13.8357 2.25 14.2499 2.25C14.6641 2.25 14.9999 2.58579 14.9999 3V8.78963C15 8.79472 15.0012 8.79972 15.0034 8.80432L20.9595 18.7312C21.0948 18.958 21.1679 19.2164 21.1714 19.4804C21.1748 19.7445 21.1085 20.0047 20.9792 20.2349C20.8498 20.4651 20.662 20.6571 20.4346 20.7914C20.2073 20.9257 19.9485 20.9977 19.6845 21L19.678 21L4.31525 21C4.05121 20.9977 3.79245 20.9257 3.56512 20.7914C3.33779 20.6571 3.14996 20.4651 3.0206 20.2349C2.89123 20.0047 2.82492 19.7445 2.82838 19.4804C2.83183 19.2164 2.90491 18.958 3.04025 18.7312L3.04113 18.7298L8.99639 8.80432C8.99853 8.79972 8.99972 8.79473 8.99987 8.78965V3C8.99987 2.58579 9.33566 2.25 9.74987 2.25Z" fill="black"/>
<path fill-rule="evenodd" clip-rule="evenodd" d="M7.5 3C7.5 2.58579 7.83579 2.25 8.25 2.25H15.75C16.1642 2.25 16.5 2.58579 16.5 3C16.5 3.41421 16.1642 3.75 15.75 3.75H8.25C7.83579 3.75 7.5 3.41421 7.5 3Z" fill="black"/>
<path fill-rule="evenodd" clip-rule="evenodd" d="M11.6645 16.4208C8.72414 14.9553 7.13582 15.4662 6.31365 16.0724C5.98026 16.3182 5.51072 16.2472 5.26492 15.9138C5.01911 15.5804 5.09011 15.1109 5.42351 14.865C6.81378 13.84 9.0315 13.4322 12.3344 15.0787L12.336 15.0795C13.9241 15.8758 15.1142 16.0825 15.9863 16.0235C16.8488 15.9652 17.4542 15.6437 17.8794 15.2819C18.1949 15.0135 18.6682 15.0516 18.9367 15.3671C19.2051 15.6825 19.1669 16.1559 18.8515 16.4243C18.208 16.9718 17.304 17.4378 16.0876 17.5201C14.881 17.6017 13.4229 17.3023 11.6645 16.4208Z" fill="black"/>
</g>
</g>
</svg>
