<svg width="24" height="24" viewBox="0 0 24 24" fill="none" xmlns="http://www.w3.org/2000/svg">
<g id="Pill">
<g id="Vector">
<path fill-rule="evenodd" clip-rule="evenodd" d="M5.03436 14.0218C3.66825 15.388 3.66791 17.6007 5.03138 18.9642C6.39485 20.3277 8.60761 20.3273 9.97372 18.9612L18.9694 9.96549C20.3356 8.59937 20.3359 6.38661 18.9724 5.02314C17.609 3.65967 15.3962 3.66001 14.0301 5.02612L5.03436 14.0218ZM3.97072 20.0249C2.02047 18.0746 2.0228 14.9121 3.9737 12.9612L12.9694 3.96546C14.9203 2.01456 18.0828 2.01223 20.0331 3.96248C21.9833 5.91273 21.981 9.07524 20.0301 11.0261L11.0344 20.0219C9.08348 21.9728 5.92097 21.9751 3.97072 20.0249Z" fill="black"/>
<path fill-rule="evenodd" clip-rule="evenodd" d="M8.4695 8.46967C8.76239 8.17678 9.23726 8.17678 9.53016 8.46967L15.5302 14.4697C15.8231 14.7626 15.8231 15.2374 15.5302 15.5303C15.2373 15.8232 14.7624 15.8232 14.4695 15.5303L8.4695 9.53033C8.1766 9.23744 8.1766 8.76257 8.4695 8.46967Z" fill="black"/>
<path fill-rule="evenodd" clip-rule="evenodd" d="M17.8359 7.77546C18.1239 8.07319 18.116 8.548 17.8183 8.83597L15.5308 11.0485C15.233 11.3364 14.7582 11.3285 14.4703 11.0308C14.1823 10.7331 14.1902 10.2583 14.4879 9.97029L16.7754 7.75779C17.0732 7.46981 17.548 7.47773 17.8359 7.77546Z" fill="black"/>
</g>
</g>
</svg>
