<svg width="24" height="24" viewBox="0 0 24 24" fill="none" xmlns="http://www.w3.org/2000/svg">
<g id="Syringe">
<g id="Vector">
<path d="M22.2816 6.21959L17.7813 1.71938C17.4888 1.42687 17.0135 1.42687 16.721 1.71938C16.4285 2.0119 16.4285 2.48723 16.721 2.77974L18.4404 4.4992L15.7506 7.189L12.5311 3.96949C12.2386 3.67697 11.7633 3.67697 11.4708 3.96949C11.1782 4.262 11.1782 4.73733 11.4708 5.02984L12.0652 5.62425L4.18418 13.5062C3.90292 13.7884 3.74916 14.1643 3.7501 14.56V19.1905L1.71938 21.2203C1.42687 21.5128 1.42687 21.9881 1.71938 22.2806C1.86564 22.4269 2.05784 22.5 2.25003 22.5C2.44223 22.5 2.63349 22.4269 2.78068 22.2806L4.8114 20.2499H9.44379C9.83475 20.2499 10.2182 20.0915 10.4967 19.8149L18.3758 11.9358L18.9702 12.5302C19.1164 12.6764 19.3086 12.7496 19.5008 12.7496C19.693 12.7496 19.8843 12.6764 20.0315 12.5302C20.324 12.2377 20.324 11.7623 20.0315 11.4698L16.8119 8.2503L19.5017 5.56049L21.2212 7.27995C21.3674 7.4262 21.5596 7.49933 21.7518 7.49933C21.944 7.49933 22.1353 7.4262 22.2825 7.27995C22.575 6.98743 22.575 6.5121 22.2825 6.21959H22.2816ZM9.44098 18.7508H5.24923L5.24548 14.5656L6.9368 12.8743L8.84376 14.7812C8.99002 14.9275 9.18222 15.0006 9.37441 15.0006C9.56661 15.0006 9.75787 14.9275 9.90506 14.7812C10.1976 14.4887 10.1976 14.0134 9.90506 13.7209L7.9981 11.8139L9.56286 10.2491L11.4698 12.1561C11.6161 12.3024 11.8083 12.3755 12.0005 12.3755C12.1927 12.3755 12.3839 12.3024 12.5311 12.1561C12.8236 11.8636 12.8236 11.3883 12.5311 11.0957L10.6242 9.18878L13.1265 6.68648L17.3154 10.8754L9.44098 18.7508Z" fill="black"/>
</g>
</g>
</svg>
