<svg width="18" height="20" viewBox="0 0 18 20" fill="none" xmlns="http://www.w3.org/2000/svg">
<path fill-rule="evenodd" clip-rule="evenodd" d="M11.25 0.25C11.6642 0.25 12 0.585786 12 1V5.5H16.5C16.9142 5.5 17.25 5.83579 17.25 6.25C17.25 6.66421 16.9142 7 16.5 7H11.25C10.8358 7 10.5 6.66421 10.5 6.25V1C10.5 0.585786 10.8358 0.25 11.25 0.25Z" fill="black"/>
<path fill-rule="evenodd" clip-rule="evenodd" d="M10.3447 9.46967C10.6376 9.17678 11.1124 9.17678 11.4053 9.46967L13.6553 11.7197C13.9482 12.0126 13.9482 12.4874 13.6553 12.7803L11.4053 15.0303C11.1124 15.3232 10.6376 15.3232 10.3447 15.0303C10.0518 14.7374 10.0518 14.2626 10.3447 13.9697L12.0643 12.25L10.3447 10.5303C10.0518 10.2374 10.0518 9.76256 10.3447 9.46967Z" fill="black"/>
<path fill-rule="evenodd" clip-rule="evenodd" d="M7.65533 9.46967C7.94822 9.76256 7.94822 10.2374 7.65533 10.5303L5.93566 12.25L7.65533 13.9697C7.94822 14.2626 7.94822 14.7374 7.65533 15.0303C7.36244 15.3232 6.88756 15.3232 6.59467 15.0303L4.34467 12.7803C4.05178 12.4874 4.05178 12.0126 4.34467 11.7197L6.59467 9.46967C6.88756 9.17678 7.36244 9.17678 7.65533 9.46967Z" fill="black"/>
<path fill-rule="evenodd" clip-rule="evenodd" d="M1.18934 0.68934C1.47064 0.408036 1.85217 0.25 2.25 0.25H11.25C11.4489 0.25 11.6397 0.329018 11.7803 0.46967L17.0303 5.71967C17.171 5.86032 17.25 6.05109 17.25 6.25V18.25C17.25 18.6478 17.092 19.0294 16.8107 19.3107C16.5294 19.592 16.1478 19.75 15.75 19.75H2.25C1.85218 19.75 1.47065 19.592 1.18934 19.3107C0.908035 19.0294 0.75 18.6478 0.75 18.25V1.75C0.75 1.35217 0.908036 0.970644 1.18934 0.68934ZM10.9393 1.75L2.25 1.75L2.25 18.25H15.75V6.56066L10.9393 1.75Z" fill="black"/>
</svg>
